<?xml version="1.0" standalone="no"?>
<!DOCTYPE svg PUBLIC "-//W3C//DTD SVG 20010904//EN"
 "http://www.w3.org/TR/2001/REC-SVG-20010904/DTD/svg10.dtd">
<svg version="1.0" xmlns="http://www.w3.org/2000/svg"
 width="800.000000pt" height="800.000000pt" viewBox="0 0 800.000000 800.000000"
 preserveAspectRatio="xMidYMid meet">
<metadata>
Created by potrace 1.11, written by Peter Selinger 2001-2013
</metadata>
<g transform="translate(0.000000,800.000000) scale(0.100000,-0.100000)"
fill="#000000" stroke="none">
<path d="M5509 7075 c-3 -2 -14 -6 -25 -9 -59 -12 -84 -19 -84 -25 0 -4 -10
-8 -22 -8 -13 -1 -28 -10 -35 -19 -7 -10 -13 -14 -13 -9 0 4 -9 -2 -19 -14
-11 -12 -22 -22 -25 -22 -10 1 -45 -37 -39 -42 2 -3 -5 -8 -16 -12 -12 -3 -19
-10 -17 -14 3 -4 -6 -20 -19 -35 -14 -16 -22 -33 -19 -37 3 -5 0 -9 -7 -9 -7
0 -9 -3 -6 -7 4 -3 3 -11 -2 -17 -16 -19 -23 -66 -25 -163 -2 -53 2 -93 7 -93
5 0 7 -7 3 -15 -3 -8 0 -18 7 -22 11 -7 15 -22 19 -60 1 -7 5 -10 10 -7 4 3 8
-2 8 -10 0 -9 5 -16 12 -16 6 0 9 -3 6 -6 -9 -8 25 -42 36 -36 5 3 6 1 3 -5
-4 -6 7 -22 23 -37 17 -14 30 -24 30 -22 0 3 11 -6 25 -20 14 -14 29 -23 34
-19 5 3 11 1 13 -5 1 -5 12 -11 23 -13 11 -1 26 -6 33 -11 7 -4 31 -9 55 -11
23 -3 52 -6 65 -9 12 -3 22 -1 22 3 0 12 33 8 43 -4 4 -7 10 -7 15 0 4 6 14
10 22 10 8 -1 24 6 34 14 11 9 16 10 12 4 -5 -9 -2 -11 8 -7 9 3 16 10 16 14
0 5 8 7 17 6 10 -2 23 2 29 8 6 6 22 18 34 26 12 8 28 21 36 28 7 6 18 12 25
12 7 0 9 3 6 6 -4 4 6 18 21 30 15 13 23 24 19 24 -4 0 1 10 12 22 11 11 18
25 15 30 -3 4 -1 8 4 8 12 0 33 56 25 64 -4 3 -1 6 6 6 7 0 10 4 7 9 -4 5 0
12 6 14 10 4 9 6 -1 6 -10 1 -11 4 -3 14 6 7 9 22 8 32 -2 11 2 26 8 34 6 9 7
12 1 9 -7 -4 -10 14 -9 52 0 33 -3 57 -7 54 -8 -5 -13 16 -10 43 1 6 -3 14 -9
18 -5 3 -10 15 -10 26 0 10 -4 19 -10 19 -5 0 -10 7 -10 15 0 8 -4 15 -10 15
-5 0 -10 5 -10 10 0 6 -11 22 -25 36 -14 14 -25 29 -25 34 0 6 -6 10 -13 10
-7 0 -19 9 -27 19 -7 11 -17 18 -22 15 -4 -3 -8 0 -8 6 0 6 -4 8 -10 5 -5 -3
-10 -2 -10 3 0 9 -79 39 -92 34 -5 -1 -8 3 -8 9 0 7 -10 9 -25 7 -13 -3 -26 0
-29 6 -3 7 -5 6 -5 -2 -1 -10 -6 -10 -21 -2 -14 8 -20 8 -20 0 0 -8 -6 -8 -20
0 -14 7 -20 7 -20 0 0 -5 -5 -10 -11 -10 -5 0 -7 5 -4 10 6 10 2 14 -6 5z"/>
<path d="M5260 6048 c0 -5 -4 -7 -9 -3 -13 8 -101 -17 -95 -27 3 -4 -2 -5 -10
-2 -9 3 -16 1 -16 -5 0 -6 -6 -11 -14 -11 -7 0 -25 -9 -38 -20 -14 -10 -29
-16 -33 -12 -5 4 -5 2 -1 -5 3 -7 -2 -14 -14 -18 -11 -4 -18 -11 -15 -16 4 -5
0 -9 -7 -9 -7 0 -26 -18 -42 -40 -17 -22 -34 -40 -39 -40 -4 0 -6 -4 -2 -9 3
-5 -2 -17 -11 -25 -8 -9 -13 -16 -9 -16 3 0 -1 -13 -9 -29 -9 -16 -12 -31 -9
-35 4 -3 2 -6 -4 -6 -5 0 -10 -6 -11 -12 0 -7 -4 -31 -8 -53 -3 -22 -7 -48 -7
-57 -1 -10 -5 -18 -9 -18 -4 0 -8 -5 -8 -11 0 -5 5 -7 12 -3 7 5 8 3 2 -7 -5
-8 -9 -17 -10 -21 -1 -5 -3 -10 -4 -13 -5 -11 -8 -27 -9 -66 0 -22 -5 -38 -9
-35 -4 2 -9 -16 -10 -41 -1 -25 -6 -51 -12 -58 -5 -6 -7 -15 -3 -18 3 -4 0
-14 -8 -24 -9 -11 -10 -14 -1 -9 6 4 12 2 12 -3 0 -6 -4 -11 -8 -11 -5 0 -8
-13 -7 -30 1 -16 -1 -30 -5 -30 -7 0 -8 -3 -11 -57 -1 -18 -6 -30 -12 -26 -5
3 -4 -5 3 -17 7 -13 8 -20 2 -16 -6 4 -11 -2 -11 -11 0 -16 -2 -28 -13 -83 -2
-8 -7 -20 -11 -27 -4 -6 -3 -14 3 -18 6 -4 7 -12 3 -18 -4 -7 -9 -18 -10 -24
-2 -7 -5 -21 -7 -30 -3 -10 -5 -31 -5 -46 -1 -20 -5 -26 -13 -21 -8 5 -7 0 2
-11 8 -10 10 -16 4 -12 -7 4 -11 -5 -12 -23 -5 -70 -6 -80 -13 -80 -4 0 -5
-13 -4 -30 1 -16 -2 -30 -7 -30 -6 0 -8 -6 -5 -14 3 -7 -1 -25 -8 -40 -8 -14
-10 -28 -5 -31 5 -3 2 -21 -5 -39 -11 -27 -12 -36 -2 -39 9 -4 9 -6 0 -6 -8
-1 -13 -14 -13 -32 0 -27 -2 -29 -15 -15 -8 8 -15 20 -15 26 0 6 -6 8 -12 4
-7 -4 -10 -4 -6 1 4 4 2 15 -5 23 -10 13 -9 15 3 8 9 -4 8 -2 -2 7 -10 8 -15
17 -11 20 3 4 1 7 -5 7 -7 0 -12 7 -12 15 0 8 -5 15 -11 15 -5 0 -7 5 -4 10 3
6 1 10 -4 10 -6 0 -11 6 -11 14 0 7 -7 19 -15 26 -9 7 -14 19 -11 27 3 7 1 13
-4 13 -5 0 -15 12 -23 28 -56 106 -65 127 -60 136 3 6 3 8 -2 4 -5 -5 -20 9
-33 29 -46 67 -107 118 -187 158 -22 11 -41 23 -43 26 -2 4 -12 5 -22 2 -11
-3 -20 -1 -20 3 0 5 -35 10 -77 12 -42 2 -80 5 -85 8 -4 3 -8 1 -8 -4 0 -4
-16 -8 -35 -7 -19 1 -32 -2 -29 -6 2 -4 -4 -8 -13 -7 -27 0 -63 -10 -77 -22
-7 -5 -16 -7 -19 -3 -4 3 -9 -2 -13 -11 -3 -9 -10 -13 -15 -10 -5 3 -9 0 -9
-7 0 -7 -3 -10 -6 -6 -3 3 -14 -2 -23 -11 -38 -36 -66 -57 -74 -54 -5 1 -6 -2
-3 -7 4 -5 -2 -14 -11 -20 -10 -6 -14 -11 -10 -11 4 0 -2 -10 -14 -22 -17 -19
-33 -47 -44 -78 -1 -3 -10 -23 -20 -45 -10 -22 -18 -46 -18 -52 0 -7 -4 -13
-8 -13 -7 0 -24 -49 -21 -62 1 -5 -5 -8 -15 -8 -9 0 -13 3 -10 7 4 3 1 13 -6
21 -10 13 -9 14 3 7 12 -7 12 -5 -1 11 -9 10 -14 25 -11 33 2 8 0 11 -5 8 -5
-3 -8 7 -7 24 1 16 -3 29 -9 29 -6 0 -7 3 -4 6 3 4 2 14 -2 23 -5 9 -11 31
-14 50 -3 18 -10 38 -16 44 -5 5 -7 16 -4 23 3 8 0 21 -7 29 -7 8 -10 24 -7
36 3 11 0 22 -7 25 -6 2 -13 19 -14 36 -2 18 -6 35 -10 38 -4 3 -9 19 -11 35
-1 17 -8 33 -13 36 -6 4 -7 12 -3 18 4 7 1 18 -5 26 -7 8 -9 15 -5 15 4 0 2 6
-4 13 -6 8 -8 17 -4 20 3 4 2 7 -3 7 -6 0 -9 13 -8 30 1 16 -2 27 -7 24 -5 -3
-9 9 -9 25 0 17 -5 31 -12 31 -6 0 -9 2 -6 5 3 3 -3 36 -14 73 -29 101 -30
105 -31 130 -1 12 -5 22 -10 22 -4 0 -7 8 -5 18 2 11 -3 26 -11 35 -7 10 -11
17 -7 17 4 0 -4 20 -18 44 -13 24 -22 48 -18 52 4 4 3 5 -3 2 -10 -6 -36 16
-35 27 2 11 -78 84 -84 78 -3 -4 -6 -1 -6 6 0 7 -4 9 -10 6 -5 -3 -10 -1 -10
4 0 6 -5 11 -10 11 -6 0 -20 9 -32 20 -12 10 -25 17 -30 14 -4 -3 -8 -1 -8 4
0 5 -7 9 -15 10 -8 1 -22 3 -30 4 -8 1 -15 5 -15 9 0 4 -9 5 -20 2 -11 -3 -20
-1 -20 4 0 10 -131 10 -148 -1 -7 -4 -12 -3 -12 2 0 5 -7 9 -15 9 -8 0 -12 -4
-9 -9 3 -4 -6 -8 -20 -8 -14 0 -27 -4 -31 -9 -3 -6 -14 -8 -25 -6 -11 2 -20 1
-20 -4 0 -9 -92 -55 -105 -52 -5 1 -7 0 -3 -4 7 -7 -50 -65 -64 -65 -5 0 -7
-4 -4 -9 3 -5 -1 -12 -10 -15 -8 -3 -12 -10 -9 -16 3 -5 1 -10 -5 -10 -6 0
-18 -16 -26 -35 -8 -19 -19 -35 -24 -35 -5 0 -7 -7 -4 -15 4 -8 1 -15 -5 -15
-6 0 -10 -3 -10 -7 1 -5 0 -10 -1 -13 -1 -3 -4 -18 -6 -35 -3 -16 -10 -35 -15
-41 -7 -8 -6 -14 3 -17 9 -4 10 -8 2 -14 -12 -9 -12 -82 1 -102 6 -10 4 -12
-6 -6 -11 6 -12 5 -1 -6 15 -16 16 -33 1 -24 -7 5 -7 2 0 -11 12 -24 25 -56
26 -69 0 -5 4 -16 8 -22 5 -7 5 -17 2 -23 -3 -5 -2 -10 4 -10 6 0 8 -7 5 -15
-4 -8 -2 -15 4 -15 6 0 9 -8 8 -17 -2 -10 5 -37 15 -61 10 -24 14 -40 9 -37
-6 3 -7 -1 -4 -9 3 -9 10 -16 14 -16 5 0 6 -8 3 -19 -2 -10 2 -24 9 -32 7 -8
13 -26 13 -41 -1 -16 2 -28 6 -28 3 0 7 -12 6 -26 0 -15 7 -30 14 -35 8 -5 11
-9 7 -9 -4 0 -2 -15 3 -32 13 -43 20 -69 24 -88 2 -14 6 -26 22 -67 3 -10 6
-21 5 -25 -1 -4 5 -25 12 -46 8 -22 12 -43 9 -46 -4 -3 -1 -6 4 -6 6 0 10 -11
8 -25 -1 -14 2 -25 6 -25 5 0 9 -10 9 -23 0 -13 3 -27 8 -31 4 -4 7 -11 8 -14
4 -33 18 -82 23 -82 4 0 6 -15 6 -32 0 -18 6 -40 13 -49 7 -9 12 -20 11 -25
-3 -10 11 -64 20 -79 8 -14 14 -45 15 -77 1 -14 4 -24 9 -21 4 2 8 -4 9 -14 0
-10 2 -23 2 -30 1 -6 5 -15 9 -19 4 -4 7 -18 7 -31 0 -13 5 -23 11 -23 6 0 8
-7 5 -17 -4 -9 -1 -20 6 -25 10 -6 10 -8 -2 -8 -11 0 -12 -2 -2 -8 7 -5 15
-19 18 -33 9 -39 12 -54 14 -54 1 0 4 -11 14 -60 1 -5 5 -15 8 -21 6 -9 14
-36 31 -109 1 -5 7 -16 11 -24 7 -10 5 -12 -3 -6 -7 4 -5 -5 5 -21 11 -15 18
-29 17 -31 -2 -2 -2 -5 -2 -8 1 -3 2 -13 3 -22 1 -10 5 -24 9 -30 5 -7 5 -13
1 -13 -3 0 -2 -6 4 -13 6 -7 13 -27 17 -44 3 -18 9 -43 14 -56 6 -14 7 -28 4
-31 -4 -3 -2 -6 3 -6 5 0 11 -12 12 -26 1 -15 8 -40 16 -56 8 -15 10 -26 5
-23 -5 4 -9 1 -9 -4 0 -6 4 -11 9 -11 5 0 12 -7 15 -16 4 -10 2 -13 -7 -8 -8
5 -7 2 2 -9 7 -9 10 -17 7 -17 -4 0 -1 -10 5 -22 6 -12 14 -38 16 -57 3 -20 8
-38 12 -41 7 -5 12 -25 14 -52 1 -10 5 -18 9 -18 4 0 8 -7 8 -15 0 -9 7 -18
15 -21 8 -4 12 -10 9 -15 -3 -5 6 -20 20 -34 14 -14 26 -28 26 -30 0 -3 0 -9
0 -15 0 -5 5 -10 10 -10 6 0 23 -12 39 -28 33 -32 68 -57 82 -57 5 0 13 -6 18
-13 5 -8 10 -13 12 -12 11 5 59 -14 59 -22 0 -7 5 -6 14 1 11 9 15 8 20 -6 6
-13 9 -14 15 -4 7 10 11 10 22 -1 17 -15 134 -16 164 -1 11 6 30 9 42 8 12 -1
20 2 18 6 -3 4 11 10 30 13 19 4 35 11 35 17 0 6 4 8 9 5 5 -3 20 3 34 14 14
11 28 20 32 20 7 0 85 78 85 85 0 2 14 19 30 37 17 18 30 40 30 49 0 9 7 22
15 29 9 7 14 19 11 27 -3 7 -1 13 4 13 5 0 15 18 21 40 7 22 16 40 21 40 4 0
7 3 6 8 -4 10 64 166 77 174 5 4 6 8 1 8 -5 0 -3 6 3 13 6 8 8 17 4 20 -3 4
-1 7 5 7 7 0 11 3 10 8 -4 11 35 92 44 92 4 0 5 6 2 14 -3 7 1 20 9 27 8 8 16
21 19 29 4 10 8 6 13 -12 4 -16 11 -28 15 -28 7 0 20 -35 17 -46 -1 -3 6 -10
16 -15 9 -6 17 -19 17 -30 0 -11 4 -18 9 -15 8 5 25 -29 22 -46 -1 -5 4 -8 10
-8 5 0 7 -4 4 -10 -3 -5 -2 -10 4 -10 5 0 15 -16 22 -35 7 -19 17 -35 22 -35
9 0 33 -60 29 -73 -1 -5 2 -6 8 -2 5 3 10 -1 10 -9 0 -9 5 -16 10 -16 6 0 10
-6 10 -14 0 -8 6 -21 13 -28 7 -7 14 -16 15 -20 6 -20 16 -44 21 -48 10 -8 40
-62 59 -102 9 -21 20 -38 24 -38 5 0 8 -9 8 -20 0 -11 5 -20 10 -20 6 0 10 -6
10 -13 0 -7 9 -23 20 -35 11 -12 20 -24 20 -26 0 -20 147 -144 180 -152 3 0
13 -4 22 -8 9 -4 21 -5 27 -2 5 3 11 1 13 -4 10 -30 275 -31 298 -2 3 4 10 7
15 8 24 3 55 17 55 26 0 5 5 6 10 3 6 -3 10 -1 10 4 0 6 5 11 10 11 11 0 24
10 61 43 10 9 19 14 19 11 0 -4 13 9 29 29 15 20 31 33 35 29 4 -3 4 1 0 11
-3 10 -1 17 6 17 6 0 9 4 6 9 -3 5 0 11 8 14 8 3 17 19 21 36 4 17 11 31 17
31 6 0 9 3 5 6 -3 3 -1 18 5 33 12 31 19 68 19 99 -1 12 3 22 7 22 4 0 8 12 8
28 3 53 8 82 16 82 4 0 5 6 2 14 -3 8 -1 24 6 35 8 16 8 21 -1 21 -8 0 -9 3 0
14 11 13 15 33 27 126 3 25 9 46 14 48 4 2 6 12 3 22 -3 13 0 20 8 20 11 0 11
2 -1 10 -8 5 -10 10 -5 10 6 0 10 17 10 38 -1 36 3 48 26 93 7 15 7 19 0 14
-6 -3 -11 -1 -11 4 0 6 4 11 8 11 4 0 7 12 7 28 -1 15 3 36 9 47 5 11 10 32 9
48 0 15 5 27 11 27 6 0 4 5 -4 10 -10 6 -11 10 -2 10 6 0 11 3 10 8 -1 4 2 32
7 62 5 30 9 65 10 77 0 12 4 25 8 29 4 4 7 18 7 30 0 13 4 25 9 28 5 3 7 19 5
36 -2 19 1 30 9 30 8 0 7 4 -3 10 -9 6 -10 10 -3 10 6 0 12 10 12 23 1 49 3
57 11 57 5 0 7 7 4 15 -4 8 -1 22 6 30 9 11 9 15 1 15 -8 0 -9 5 -1 19 5 11
10 30 10 43 0 13 6 30 13 37 10 11 9 12 -3 6 -13 -8 -13 -6 -2 8 8 9 11 21 7
27 -3 5 -1 10 6 10 9 0 9 3 0 14 -8 10 -9 16 -1 21 6 3 8 11 5 16 -4 5 -1 9 6
9 9 0 9 3 0 14 -8 10 -9 15 -1 18 6 2 13 24 14 48 2 25 8 56 14 70 7 17 6 29
-2 39 -8 11 -8 13 2 7 6 -4 12 -4 13 1 1 13 9 77 12 93 1 8 5 20 8 25 3 6 4
20 3 33 0 12 2 22 5 22 4 0 6 12 6 28 -1 15 1 32 4 37 7 13 11 34 13 67 0 15
4 25 8 23 4 -2 6 11 5 30 -1 19 3 35 8 35 5 0 3 8 -4 17 -10 11 -10 14 -1 9 8
-5 12 -1 13 11 1 10 3 27 5 38 2 11 6 34 8 50 2 17 5 30 6 30 4 0 11 42 12 73
1 17 6 32 10 32 4 0 5 9 3 20 -2 11 0 22 6 25 5 4 9 11 9 16 0 6 -4 8 -8 5 -5
-3 -9 1 -9 9 0 8 4 12 8 10 10 -7 19 22 13 40 -4 9 0 15 7 15 11 0 11 3 -1 10
-8 5 -10 10 -3 10 6 0 10 12 8 28 -2 15 2 33 7 40 13 15 14 188 2 185 -5 -1
-9 11 -8 25 1 27 -25 94 -38 100 -5 2 -8 10 -8 19 0 8 -7 21 -15 30 -8 8 -13
19 -10 24 4 5 -2 9 -11 9 -10 0 -15 3 -12 6 5 4 -44 61 -49 57 -1 -1 -15 10
-31 25 -35 33 -107 72 -132 72 -11 0 -22 5 -25 10 -3 6 -17 8 -31 6 -14 -3
-24 0 -24 7 0 7 -4 6 -10 -3 -5 -8 -10 -10 -10 -5 0 6 -18 11 -40 12 -27 1
-38 -2 -34 -9 5 -7 2 -8 -7 -2 -19 12 -69 13 -69 2z"/>
<path d="M3284 2418 c-3 -4 -16 -8 -30 -8 -13 0 -24 -5 -24 -11 0 -5 -4 -8
-10 -4 -5 3 -18 -3 -29 -14 -11 -11 -22 -17 -25 -13 -3 3 -6 0 -6 -6 0 -7 -6
-12 -13 -12 -7 0 -21 -14 -31 -30 -10 -18 -22 -28 -29 -24 -7 4 -9 3 -4 -1 4
-5 -1 -17 -10 -28 -13 -15 -14 -19 -3 -13 9 4 8 2 -2 -7 -10 -8 -18 -22 -18
-31 0 -9 -4 -16 -8 -16 -5 0 -9 -6 -9 -12 0 -7 -3 -26 -7 -43 -19 -102 8 -214
70 -286 8 -9 12 -19 9 -22 -3 -4 -2 -5 1 -3 3 3 15 -4 27 -14 11 -11 25 -17
30 -13 6 3 7 1 3 -5 -4 -7 -1 -12 9 -12 9 0 14 -4 11 -8 -3 -5 25 -19 61 -32
73 -26 180 -30 233 -10 3 1 8 2 13 1 4 0 7 4 7 10 0 5 4 8 9 4 5 -3 17 2 25
11 9 8 16 12 16 8 0 -4 8 0 18 9 10 10 22 14 27 10 4 -5 5 -2 1 4 -4 8 2 17
18 25 14 6 26 14 26 18 0 4 9 17 20 30 11 12 17 26 15 30 -3 5 0 10 7 12 6 2
13 15 15 28 2 13 9 28 16 32 6 4 9 8 6 8 -4 0 -3 18 1 40 4 22 3 37 -1 34 -5
-3 -5 5 -1 18 9 25 9 30 -1 73 -4 17 -9 41 -12 54 -9 49 -88 148 -144 179 -46
27 -112 52 -105 40 5 -8 3 -8 -7 -2 -17 11 -159 13 -165 2z"/>
<path d="M3280 1559 c-25 -10 -40 -18 -35 -19 6 0 2 -5 -8 -11 -21 -12 -60
-86 -52 -99 3 -5 1 -11 -5 -15 -7 -4 -7 -12 0 -25 7 -13 6 -20 -1 -22 -16 -5
25 -76 66 -114 19 -18 36 -29 39 -27 3 3 12 0 20 -6 17 -14 99 -12 136 3 27
11 62 44 87 82 17 27 27 144 12 144 -6 0 -8 4 -5 9 11 18 -83 119 -98 104 -3
-3 -6 -2 -6 3 0 16 -103 11 -150 -7z"/>
</g>
</svg>
